<svg width="83" height="83" viewBox="0 0 83 83" fill="none" xmlns="http://www.w3.org/2000/svg">
<circle cx="41.5" cy="41.5" r="41.5" fill="#1C1E53"/>
<path d="M30.6134 64.8496C29.9734 64.8496 29.6534 64.615 29.6534 64.1456C29.6534 63.7616 29.9308 63.5056 30.4854 63.3776L31.9574 63.1216C32.8534 62.951 33.4294 62.7163 33.6854 62.4176C33.9841 62.119 34.1334 61.5216 34.1334 60.6256V22.9936C34.1334 22.0976 33.9841 21.5003 33.6854 21.2016C33.4294 20.903 32.8534 20.6683 31.9574 20.4976L30.4854 20.2416C29.9308 20.1136 29.6534 19.8576 29.6534 19.4736C29.6534 19.0043 29.9734 18.7696 30.6134 18.7696H51.2214C52.2028 18.7696 52.7361 19.2603 52.8214 20.2416L53.3335 30.8656C53.4188 31.591 53.1415 31.9536 52.5014 31.9536C51.9894 31.9536 51.6908 31.6763 51.6054 31.1216L51.2854 29.0096C50.9441 26.791 50.3468 25.063 49.4935 23.8256C48.6401 22.5883 47.6801 21.7136 46.6134 21.2016C45.5468 20.647 44.5228 20.3696 43.5414 20.3696C41.6641 20.3696 40.3841 20.6683 39.7014 21.2656C39.0188 21.863 38.6774 22.7803 38.6774 24.0176V39.1216C38.6774 39.719 38.9761 40.0176 39.5734 40.0176H41.8134C43.6908 40.0176 44.8428 39.015 45.2694 37.0096L45.9734 33.8096C46.1014 33.255 46.4214 32.9776 46.9334 32.9776C47.4454 32.9776 47.7015 33.3403 47.7015 34.0656V48.4656C47.7015 49.191 47.4454 49.5536 46.9334 49.5536C46.4214 49.5536 46.1014 49.2763 45.9734 48.7216L45.2694 45.5856C44.9708 44.0923 44.5441 43.111 43.9894 42.6416C43.4774 42.1723 42.7308 41.9376 41.7494 41.9376H39.5734C38.9761 41.9376 38.6774 42.2363 38.6774 42.8336V60.3056C38.6774 61.2016 38.8054 61.8416 39.0614 62.2256C39.3601 62.567 39.9574 62.8016 40.8534 62.9296L43.8614 63.3776C44.3308 63.463 44.5654 63.6976 44.5654 64.0816C44.5654 64.5936 44.2454 64.8496 43.6054 64.8496H30.6134Z" fill="#FCD980"/>
</svg>
