<svg width="133" height="133" viewBox="0 0 133 133" fill="none" xmlns="http://www.w3.org/2000/svg">
<circle cx="66.5" cy="66.5" r="66.5" fill="#1C1E53"/>
<path d="M44.5466 114C43.2266 114 42.5666 113.516 42.5666 112.548C42.5666 111.756 43.1386 111.228 44.2826 110.964L47.3186 110.436C49.1666 110.084 50.3546 109.6 50.8826 108.984C51.4986 108.368 51.8066 107.136 51.8066 105.288V27.672C51.8066 25.824 51.4986 24.592 50.8826 23.976C50.3546 23.36 49.1666 22.876 47.3186 22.524L44.2826 21.996C43.1386 21.732 42.5666 21.204 42.5666 20.412C42.5666 19.444 43.2266 18.96 44.5466 18.96H87.0506C89.0746 18.96 90.1746 19.972 90.3506 21.996L91.4066 43.908C91.5826 45.404 91.0106 46.152 89.6906 46.152C88.6346 46.152 88.0186 45.58 87.8426 44.436L87.1826 40.08C86.4786 35.504 85.2466 31.94 83.4866 29.388C81.7266 26.836 79.7466 25.032 77.5466 23.976C75.3466 22.832 73.2346 22.26 71.2106 22.26C67.3386 22.26 64.6986 22.876 63.2906 24.108C61.8826 25.34 61.1786 27.232 61.1786 29.784V60.936C61.1786 62.168 61.7946 62.784 63.0266 62.784H67.6466C71.5186 62.784 73.8946 60.716 74.7746 56.58L76.2266 49.98C76.4906 48.836 77.1506 48.264 78.2066 48.264C79.2626 48.264 79.7906 49.012 79.7906 50.508V80.208C79.7906 81.704 79.2626 82.452 78.2066 82.452C77.1506 82.452 76.4906 81.88 76.2266 80.736L74.7746 74.268C74.1586 71.188 73.2786 69.164 72.1346 68.196C71.0786 67.228 69.5386 66.744 67.5146 66.744H63.0266C61.7946 66.744 61.1786 67.36 61.1786 68.592V104.628C61.1786 106.476 61.4426 107.796 61.9706 108.588C62.5866 109.292 63.8186 109.776 65.6666 110.04L71.8706 110.964C72.8386 111.14 73.3226 111.624 73.3226 112.416C73.3226 113.472 72.6626 114 71.3426 114H44.5466Z" fill="#FCD980"/>
</svg>
